<!-- 已有 viewBox，接著條 width , height 就可等比例放大縮小-->
<svg id="uui2019_svg"  
	xmlns="http://www.w3.org/2000/svg" xmlns:xlink="http://www.w3.org/1999/xlink" version="1.1"

     viewBox="0 0 900 190"
>

	
	<!--U -->
	<path d="M 0 0 L 0 100
		A 50,50 -30 0,0 100,100 L 100 0
		L 80 0 L 80 100
		A 30,30 -30 0,1 20,100
		L 20 0 L 0 0
          "
        fill="none" stroke="red" stroke-width="2"  />
	
	<!--U -->
	<path d="M 120 0 L 120 100
		A 50,50 -30 0,0 220,100 L 220 0
		L 200 0 L 200 100
		A 30,30 -30 0,1 140,100
		L 140 0 L 120 0
          "
        fill="none" stroke="red" stroke-width="2"  />
	
	<!--I -->
	<path d="
		M 240 0 L 340 0 L 340 30 L 305 30 L 305 120 L 340 120
		L 340 150 L 240 150 L 240 120 L 275 120 L 275 30
		L 240 30 L 240 0
	
		" fill="none" stroke="red" stroke-width="2"/>
	
	<!--D -->
	<path d="M 360 0 L 380 0 Q 435 5 445 30 Q 455 45 460 75 
			Q 455 105 445 120 Q 435 145 380 150 
			L 360 150 L 360 0
	" fill="none" stroke="red" stroke-width="2"/>

	<!--D內 -->
	<path d="M 380 15 Q 425 20 435 40 Q 445 50 445 75
			Q 445 100 435 110 Q 425 130 380 135
			L 380 15
	" fill="none" stroke="red" stroke-width="2"/>

	<!--2 -->
	<path d="M 480 50 A 50,50 -30 0,1 580 50
			L 520 125 L 580 125 L 580 150
			L 480 150 L 560 50
			A 30,30 -30 0,0 500 50
			L 480 50
			"
			
	fill="none" stroke="red" stroke-width="2"/>

	<!--0 外-->
	<path d="M 600 75
			Q 610 30 615 25 Q 625 3 650 0
			Q 675 3 685 20 Q 695 30 700 75
			Q 695 120 685 130 Q 675 147 650 150 
			Q 625 147 615 130 Q 605 120 600 75
			"
	fill="none" stroke="red" stroke-width="2"/>
	
	<!-- 0 內-->
	<path d="M 620 75 Q 622 25 635 20 Q 640 15 650 13
			Q 660 15 665 20 Q 678 25 680 75
			Q 678 125 665 130 Q 660 135 650 138
			Q 640 135 635 130 Q 622 125 620 75
			"
	fill="none" stroke="red" stroke-width="2"/>

	<!-- 1 -->
	<path d="M 720 0 L 760 0 L 760 150 L 720 150 L 720 0
	
	" fill="none" stroke="red" stroke-width="2"/>


	<!-- 9 外-->
	<!-- 
	L 880 150 L 860 150 L 860 50
	A 40,40 -30 0,1 780 50
	-->
	<path d="M 780 50 A 50,50 -30 0,1 880 50
			L 880 115 Q 875 138 860 145 Q 855 148 830 150
			L 800 150 
			A 10,10 -30,0,1 800,130
			L 840 130
			Q 850 130 860 110 L 860 50
			A 40,40 -30 0,1 780,50
			" 
	fill="none" stroke="red" stroke-width="2"/>

	<!-- 9 內
	
		A 25,25 -30,0,1 850,40
			L 850 40
			A 25,25 -30,0,0 800,40
	-->
	<path d="M 800 40 
			A 25,25 -30,0,1 850,40
			L 850 40
			A 25,25 -30,0,1 800,40
 			"
	fill="none" stroke="red" stroke-width="2"/>

</svg>